<?xml version="1.0" encoding="iso-8859-1"?>
<!-- Generator: Adobe Illustrator 18.0.0, SVG Export Plug-In . SVG Version: 6.00 Build 0)  -->
<!DOCTYPE svg PUBLIC "-//W3C//DTD SVG 1.1//EN" "http://www.w3.org/Graphics/SVG/1.1/DTD/svg11.dtd">
<svg version="1.1" id="Capa_1" xmlns="http://www.w3.org/2000/svg" xmlns:xlink="http://www.w3.org/1999/xlink" x="0px" y="0px"
	 viewBox="0 0 231.809 231.809" style="enable-background:new 0 0 231.809 231.809;" xml:space="preserve">
<path d="M61.009,71.726v47.399c0,29.004,23.597,52.601,52.601,52.601h4.59c29.004,0,52.601-23.597,52.601-52.601V71.726h20v47.399
	c0,37.429-28.473,68.327-64.896,72.188v20.496h12.666v20H93.238v-20h12.666v-20.496c-36.423-3.86-64.895-34.758-64.895-72.188
	V71.726H61.009z M75.904,114.121V39.999c0-22.056,17.944-39.999,40-39.999s40,17.943,40,39.999v74.122
	c0,22.055-17.944,39.998-40,39.998S75.904,136.176,75.904,114.121z M95.904,114.121c0,11.027,8.972,19.998,20,19.998
	s20-8.971,20-19.998V39.999c0-11.027-8.972-19.999-20-19.999s-20,8.972-20,19.999V114.121z"/>
<g>
</g>
<g>
</g>
<g>
</g>
<g>
</g>
<g>
</g>
<g>
</g>
<g>
</g>
<g>
</g>
<g>
</g>
<g>
</g>
<g>
</g>
<g>
</g>
<g>
</g>
<g>
</g>
<g>
</g>
</svg>
